<?xml version="1.0" encoding="UTF-8"?>
<svg id="Capa_1" xmlns="http://www.w3.org/2000/svg" version="1.1" viewBox="0 0 1601.64 579.46">
  <!-- Generator: Adobe Illustrator 30.5.0, SVG Export Plug-In . SVG Version: 2.1.4 Build 102)  -->
  <defs>
    <style>
      .st0 {
        fill: #9a9a9a;
      }

      .st0, .st1, .st2, .st3, .st4, .st5 {
        fill-rule: evenodd;
      }

      .st1, .st6 {
        fill: #222220;
      }

      .st2 {
        fill: #ebebeb;
      }

      .st3 {
        fill: #f1cc51;
      }

      .st4 {
        fill: #d8d8d8;
      }

      .st5 {
        fill: #585757;
      }
    </style>
  </defs>
  <g>
    <path class="st3" d="M808.86,26.61c85.32,0,154.52,71.85,154.52,160.46s-69.19,160.46-154.52,160.46-154.52-71.85-154.52-160.46S723.53,26.61,808.86,26.61h0Z"/>
    <path class="st2" d="M709.07,31.66c29.21-15.33,60.64-21.48,91.18-19.54l-2.79,29.49c-22.04-.51-44.52,4.41-65.51,15.43-67.39,35.36-94.04,120.02-59.53,189.05,1.85,3.71,5.37,11.85,7.49,15.31l-47,20.38c-40.82-78.66-23.16-198,76.16-250.12h0Z"/>
    <path class="st0" d="M718.2,39.27c29.21-15.33,60.64-21.48,91.18-19.54l-2.79,29.49c-22.04-.52-44.52,4.41-65.51,15.43-67.39,35.36-94.04,120.02-59.53,189.05,1.85,3.71,5.37,11.85,7.49,15.31l-47,20.37c-40.82-78.66-23.16-198,76.16-250.12h0Z"/>
    <path class="st1" d="M715.16,34.7c29.21-15.33,60.64-21.48,91.18-19.54l-2.79,29.5c-22.04-.52-44.51,4.41-65.51,15.43-67.39,35.36-94.04,120.01-59.52,189.04,1.85,3.71,5.37,11.85,7.49,15.31l-47,20.38c-40.82-78.66-23.16-198,76.16-250.12h0Z"/>
    <path class="st2" d="M802.3,0c98.16,0,177.77,79.6,177.77,177.77,0,33.07-9.05,64.02-24.79,90.55l-24.54-15.73c10.58-19.54,16.59-41.91,16.59-65.68,0-76.3-61.88-138.18-138.18-138.18-4.09,0-8.15.19-12.15.53L801.39.01h.91Z"/>
    <path class="st0" d="M811.43,7.61c98.16,0,177.77,79.6,177.77,177.77,0,33.07-9.05,64.02-24.79,90.55l-24.54-15.73c10.58-19.54,16.59-41.9,16.59-65.68,0-76.3-61.87-138.18-138.18-138.18-4.09,0-8.14.19-12.15.54l4.39-49.25h.91Z"/>
    <path class="st1" d="M808.39,3.05c98.16,0,177.77,79.6,177.77,177.77,0,33.07-9.05,64.02-24.79,90.55l-24.54-15.73c10.58-19.54,16.59-41.91,16.59-65.68,0-76.3-61.88-138.18-138.18-138.18-4.1,0-8.14.19-12.15.54l4.39-49.25h.91Z"/>
    <path class="st2" d="M966.79,276.5c-54.16,102.09-186.92,106.11-241.91,75.86-47.33-26.03-59.77-45.79-72.42-67.49l27.18-11.78c8.16,14.27,14.67,26.8,51.51,46,44.26,23.06,152.22,8.76,189.22-58.97,1.99-3.64,3.78-7.31,5.42-11.03l41.43,26.6-.43.81h0Z"/>
    <path class="st0" d="M981.25,281.83c-54.16,102.09-186.92,106.11-241.91,75.86-53.94-29.67-62.58-51.18-77.83-76.72l22.93-9.94,4.27-1.51c54.96,83.21,192.85,93.43,246.12-4.07,1.99-3.64,3.79-7.32,5.42-11.03l41.43,26.6-.43.81h0Z"/>
    <path class="st1" d="M972.88,279.55c-54.16,102.09-186.92,106.1-241.91,75.86-50.61-27.84-61.33-48.49-75.06-72.03l27.18-11.78c50.99,84.87,194.78,80.52,243.38-8.43,1.99-3.64,3.79-7.32,5.42-11.03l41.43,26.6-.43.81h0Z"/>
    <path class="st0" d="M653.44,245.77c5.36,0,9.7,4.34,9.7,9.7s-4.35,9.7-9.7,9.7-9.7-4.34-9.7-9.7,4.34-9.7,9.7-9.7h0Z"/>
    <path class="st2" d="M651.02,243.61c5.27,0,9.54,4.27,9.54,9.54s-4.27,9.54-9.54,9.54-9.54-4.27-9.54-9.54,4.27-9.54,9.54-9.54h0Z"/>
    <path class="st5" d="M652.48,246.03c4.68,0,8.48,3.8,8.48,8.48s-3.8,8.48-8.48,8.48-8.48-3.8-8.48-8.48,3.8-8.48,8.48-8.48h0Z"/>
    <path class="st0" d="M943.05,272.19c5.36,0,9.7,4.34,9.7,9.7s-4.34,9.7-9.7,9.7-9.7-4.34-9.7-9.7,4.34-9.7,9.7-9.7h0Z"/>
    <path class="st4" d="M940.63,270.02c5.27,0,9.54,4.27,9.54,9.54s-4.27,9.54-9.54,9.54-9.54-4.27-9.54-9.54,4.27-9.54,9.54-9.54h0Z"/>
    <path class="st5" d="M942.09,272.45c4.68,0,8.48,3.8,8.48,8.48s-3.8,8.48-8.48,8.48-8.48-3.8-8.48-8.48,3.8-8.48,8.48-8.48h0Z"/>
    <path class="st0" d="M825.64,19.76c5.36,0,9.71,4.34,9.71,9.7s-4.35,9.7-9.71,9.7-9.7-4.34-9.7-9.7,4.34-9.7,9.7-9.7h0Z"/>
    <path class="st4" d="M823.22,17.59c5.27,0,9.54,4.27,9.54,9.54s-4.27,9.54-9.54,9.54-9.54-4.27-9.54-9.54,4.27-9.54,9.54-9.54h0Z"/>
    <path class="st5" d="M824.68,20.02c4.68,0,8.48,3.8,8.48,8.48s-3.8,8.48-8.48,8.48-8.48-3.8-8.48-8.48,3.79-8.48,8.48-8.48h0Z"/>
    <g>
      <path class="st6" d="M801,257.03h-33.88v-68.25h-19.26v68.25h-33.88V114.92h33.88v54.12h19.26v-54.12h33.88v142.12Z"/>
      <path class="st6" d="M904.11,256.79h-33.88v-50.22c0-5.03-1.73-8.45-5.18-10.24-2.31-1.13-6.25-1.7-11.85-1.7h-2.47v62.16h-33.88v-117.74c0-9.42,5.2-16.73,15.6-21.94,8.29-3.9,17.71-5.85,28.28-5.85s20.07,1.95,28.03,5.85c10.24,5.04,15.36,12.35,15.36,21.94v24.87c0,13.49-8.61,20.88-25.84,22.18,17.22,1.46,25.84,8.29,25.84,20.48v50.22ZM871.94,163.92v-17.31c0-11.86-3.7-17.8-11.09-17.8-6.74,0-10.11,2.85-10.11,8.53v41.2h.25c13.97,0,20.96-4.87,20.96-14.63Z"/>
    </g>
  </g>
  <g>
    <path d="M70.75,458.64v118.33h-30.77v-49.7h-9.21v49.7H0v-118.33h30.77v42.32h9.21v-42.32h30.77Z"/>
    <path d="M153.05,458.64v79.08c0,8.97-.29,15.26-.88,18.89-.58,3.63-2.31,7.36-5.19,11.18-2.88,3.83-6.66,6.72-11.37,8.7-4.7,1.97-10.25,2.96-16.63,2.96-7.07,0-13.3-1.17-18.71-3.51s-9.45-5.38-12.13-9.14c-2.68-3.75-4.26-7.71-4.75-11.88-.49-4.17-.73-12.92-.73-26.28v-70.02h30.77v88.73c0,5.17.28,8.47.84,9.9.56,1.44,1.69,2.16,3.4,2.16,1.95,0,3.2-.79,3.76-2.38.56-1.58.84-5.32.84-11.22v-87.2h30.77Z"/>
    <path d="M259.91,458.64v118.33h-26.9l-.04-79.89-10.71,79.89h-19.08l-11.29-78.06-.04,78.06h-26.9v-118.33h39.82c1.18,7.12,2.4,15.5,3.65,25.16l4.37,30.1,7.07-55.26h40.04Z"/>
    <path d="M272.26,458.64h30.7c9.7,0,17.04.75,22.04,2.26,4.99,1.51,9.03,4.57,12.1,9.17,3.07,4.6,4.6,12.02,4.6,22.24,0,6.92-1.08,11.74-3.25,14.46-2.17,2.73-6.44,4.82-12.83,6.28,7.11,1.61,11.94,4.28,14.47,8.01,2.53,3.73,3.8,9.45,3.8,17.15v10.97c0,8-.91,13.92-2.74,17.77-1.83,3.85-4.74,6.49-8.73,7.9-4,1.41-12.18,2.12-24.56,2.12h-35.6v-118.33ZM303.03,478.88v26.31c1.32-.05,2.34-.07,3.07-.07,3.02,0,4.95-.74,5.77-2.23.83-1.49,1.24-5.74,1.24-12.75,0-3.7-.34-6.3-1.02-7.78-.68-1.49-1.57-2.42-2.67-2.81-1.1-.39-3.23-.61-6.4-.66ZM303.03,523.61v33.11c4.34-.15,7.1-.83,8.3-2.05,1.19-1.22,1.79-4.21,1.79-8.99v-11.04c0-5.07-.54-8.14-1.61-9.21-1.07-1.07-3.9-1.68-8.48-1.83Z"/>
    <path d="M354.93,458.64h51.31v23.68h-20.54v22.44h19.22v22.51h-19.22v26.02h22.58v23.68h-53.36v-118.33Z"/>
    <path d="M417.13,458.64h21.78c14.52,0,24.35.56,29.49,1.68,5.14,1.12,9.33,3.98,12.57,8.59,3.24,4.6,4.86,11.95,4.86,22.04,0,9.21-1.15,15.4-3.44,18.56-2.29,3.17-6.8,5.07-13.52,5.7,6.09,1.51,10.18,3.53,12.28,6.07,2.09,2.53,3.4,4.86,3.91,6.98.51,2.12.77,7.96.77,17.5v31.21h-28.58v-39.32c0-6.33-.5-10.26-1.5-11.77-1-1.51-3.62-2.27-7.86-2.27v53.36h-30.77v-118.33ZM447.9,478.88v26.31c3.46,0,5.88-.47,7.27-1.42,1.39-.95,2.08-4.03,2.08-9.25v-6.5c0-3.75-.67-6.21-2.01-7.38-1.34-1.17-3.79-1.75-7.35-1.75Z"/>
    <path d="M559.73,458.64v23.68h-18.27v94.65h-30.77v-94.65h-18.2v-23.68h67.24Z"/>
    <path d="M637.06,527.93c0,11.89-.28,20.31-.84,25.25-.56,4.95-2.31,9.46-5.26,13.56-2.95,4.09-6.93,7.24-11.95,9.43-5.02,2.19-10.87,3.29-17.54,3.29s-12.02-1.04-17.07-3.11-9.1-5.18-12.17-9.32c-3.07-4.14-4.9-8.65-5.48-13.52-.58-4.87-.88-13.4-.88-25.58v-20.25c0-11.89.28-20.31.84-25.25.56-4.95,2.31-9.46,5.26-13.56,2.95-4.09,6.93-7.24,11.95-9.43,5.02-2.19,10.87-3.29,17.54-3.29,6.33,0,12.02,1.04,17.07,3.11,5.04,2.07,9.1,5.18,12.17,9.32,3.07,4.14,4.9,8.65,5.48,13.52.58,4.87.88,13.4.88,25.58v20.25ZM606.29,489.04c0-5.51-.3-9.03-.91-10.56-.61-1.54-1.86-2.3-3.76-2.3-1.61,0-2.84.62-3.69,1.86-.85,1.24-1.28,4.91-1.28,11v55.26c0,6.87.28,11.11.84,12.72.56,1.61,1.86,2.41,3.91,2.41s3.44-.92,4.02-2.78c.58-1.85.88-6.26.88-13.23v-54.38Z"/>
    <path d="M674.92,458.64h21.78c14.52,0,24.35.56,29.49,1.68,5.14,1.12,9.33,3.98,12.57,8.59,3.24,4.6,4.86,11.95,4.86,22.04,0,9.21-1.15,15.4-3.44,18.56-2.29,3.17-6.8,5.07-13.52,5.7,6.09,1.51,10.18,3.53,12.28,6.07,2.09,2.53,3.4,4.86,3.91,6.98.51,2.12.77,7.96.77,17.5v31.21h-28.58v-39.32c0-6.33-.5-10.26-1.5-11.77-1-1.51-3.62-2.27-7.86-2.27v53.36h-30.77v-118.33ZM705.69,478.88v26.31c3.46,0,5.88-.47,7.27-1.42,1.39-.95,2.08-4.03,2.08-9.25v-6.5c0-3.75-.67-6.21-2.01-7.38-1.34-1.17-3.79-1.75-7.35-1.75Z"/>
    <path d="M808.73,458.64l17.6,118.33h-31.45l-1.65-21.27h-11.01l-1.85,21.27h-31.81l15.7-118.33h44.48ZM792.42,534.72c-1.56-13.4-3.12-29.97-4.69-49.7-3.13,22.66-5.1,39.23-5.91,49.7h10.59Z"/>
    <path d="M900.26,458.64v118.33h-26.97l-16.01-53.79v53.79h-25.73v-118.33h25.73l17.25,53.28v-53.28h25.73Z"/>
    <path d="M964.07,458.64v23.68l-22.92,70.97h22.92v23.68h-56.72v-17.18l23.68-77.48h-20.9v-23.68h53.94Z"/>
    <path d="M1041.98,458.64v79.08c0,8.97-.29,15.26-.88,18.89-.58,3.63-2.31,7.36-5.19,11.18-2.88,3.83-6.66,6.72-11.37,8.7-4.7,1.97-10.25,2.96-16.63,2.96-7.07,0-13.3-1.17-18.71-3.51-5.41-2.34-9.45-5.38-12.13-9.14s-4.26-7.71-4.75-11.88-.73-12.92-.73-26.28v-70.02h30.77v88.73c0,5.17.28,8.47.84,9.9.56,1.44,1.69,2.16,3.4,2.16,1.95,0,3.2-.79,3.76-2.38.56-1.58.84-5.32.84-11.22v-87.2h30.77Z"/>
    <path d="M1124.5,502.2h-30.77v-10.74c0-6.77-.29-11.01-.88-12.72-.58-1.71-1.97-2.56-4.17-2.56-1.9,0-3.19.73-3.87,2.19-.68,1.46-1.02,5.21-1.02,11.26v56.79c0,5.31.34,8.81,1.02,10.49.68,1.68,2.05,2.52,4.09,2.52,2.24,0,3.76-.95,4.57-2.85.8-1.9,1.21-5.6,1.21-11.11v-14.03h-6.21v-17.98h36.03v63.52h-19.34l-2.85-8.48c-2.1,3.65-4.74,6.4-7.94,8.22-3.19,1.83-6.96,2.74-11.3,2.74-5.17,0-10.01-1.26-14.52-3.76-4.51-2.51-7.94-5.62-10.28-9.32-2.34-3.7-3.8-7.59-4.39-11.66s-.88-10.17-.88-18.31v-35.16c0-11.3.61-19.52,1.83-24.63,1.22-5.12,4.71-9.81,10.49-14.07,5.77-4.26,13.24-6.4,22.4-6.4s16.49,1.85,22.44,5.56c5.94,3.7,9.82,8.1,11.62,13.19,1.8,5.09,2.7,12.49,2.7,22.18v5.12Z"/>
    <path d="M1167.18,458.64v94.65h18.71v23.68h-49.48v-118.33h30.77Z"/>
    <path d="M1224.12,458.64v118.33h-30.77v-118.33h30.77Z"/>
    <path d="M1289.67,458.64l17.6,118.33h-31.45l-1.65-21.27h-11.01l-1.85,21.27h-31.81l15.7-118.33h44.48ZM1273.36,534.72c-1.56-13.4-3.12-29.97-4.69-49.7-3.13,22.66-5.1,39.23-5.91,49.7h10.59Z"/>
    <path d="M1404.07,494.45h-28.58v-8.77c0-4.09-.37-6.7-1.1-7.82-.73-1.12-1.95-1.68-3.66-1.68-1.85,0-3.25.76-4.2,2.27-.95,1.51-1.43,3.8-1.43,6.88,0,3.95.53,6.92,1.6,8.92,1.02,2,3.92,4.41,8.7,7.23,13.7,8.13,22.33,14.8,25.88,20.02s5.34,13.62,5.34,25.22c0,8.43-.99,14.64-2.96,18.64-1.97,4-5.79,7.35-11.44,10.05-5.65,2.7-12.23,4.06-19.73,4.06-8.24,0-15.26-1.56-21.09-4.68-5.82-3.12-9.64-7.09-11.44-11.91-1.8-4.82-2.71-11.67-2.71-20.54v-7.75h28.58v14.4c0,4.43.4,7.29,1.21,8.55.8,1.27,2.23,1.9,4.28,1.9s3.57-.8,4.57-2.41c1-1.61,1.5-3.99,1.5-7.16,0-6.97-.95-11.52-2.85-13.67-1.95-2.14-6.75-5.73-14.4-10.75-7.65-5.07-12.72-8.75-15.2-11.04-2.49-2.29-4.54-5.46-6.18-9.5-1.63-4.04-2.45-9.21-2.45-15.5,0-9.06,1.16-15.69,3.47-19.88,2.31-4.19,6.05-7.47,11.22-9.83,5.16-2.36,11.4-3.54,18.71-3.54,7.99,0,14.8,1.29,20.43,3.87,5.63,2.58,9.36,5.84,11.18,9.76,1.83,3.92,2.74,10.59,2.74,19.99v4.68Z"/>
    <path d="M1435.06,552.85v24.12h-22.29v-24.12h22.29Z"/>
    <path d="M1443.91,458.64h21.78c14.52,0,24.35.56,29.49,1.68,5.14,1.12,9.33,3.98,12.57,8.59,3.24,4.6,4.86,11.95,4.86,22.04,0,9.21-1.15,15.4-3.44,18.56-2.29,3.17-6.8,5.07-13.52,5.7,6.09,1.51,10.18,3.53,12.28,6.07,2.09,2.53,3.4,4.86,3.91,6.98.51,2.12.77,7.96.77,17.5v31.21h-28.58v-39.32c0-6.33-.5-10.26-1.5-11.77-1-1.51-3.62-2.27-7.86-2.27v53.36h-30.77v-118.33ZM1474.68,478.88v26.31c3.46,0,5.88-.47,7.27-1.42s2.08-4.03,2.08-9.25v-6.5c0-3.75-.67-6.21-2.01-7.38-1.34-1.17-3.79-1.75-7.35-1.75Z"/>
    <path d="M1543.31,552.85v24.12h-22.29v-24.12h22.29Z"/>
    <path d="M1582.92,458.64v94.65h18.71v23.68h-49.48v-118.33h30.77Z"/>
  </g>
</svg>